<svg width="22" height="18" viewBox="0 0 22 18" fill="none" xmlns="http://www.w3.org/2000/svg">
<path fill-rule="evenodd" clip-rule="evenodd" d="M2.10657 2.55395C2.27195 2.22693 2.61204 2 3 2H19C19.388 2 19.7281 2.22694 19.8934 2.55398L11 8.77937L2.10657 2.55395ZM3.60559e-05 2.9852C-8.006e-05 2.99354 -9.19573e-05 3.00188 2.62941e-09 3.01022V15C2.62941e-09 16.6523 1.34772 18 3 18H19C20.6523 18 22 16.6523 22 15V3.01402C22.0002 3.00256 22.0002 2.99109 21.9999 2.97962C21.9889 1.33665 20.6455 0 19 0H3C1.35265 0 0.00805481 1.33968 3.60559e-05 2.9852ZM20 4.9207V15C20 15.5477 19.5477 16 19 16H3C2.45228 16 2 15.5477 2 15V4.92066L10.4266 10.8193C10.7709 11.0603 11.2292 11.0603 11.5735 10.8193L20 4.9207Z" fill="#7737FF"/>
</svg>
