<?xml version="1.0" encoding="UTF-8"?><!DOCTYPE svg PUBLIC "-//W3C//DTD SVG 1.1//EN" "http://www.w3.org/Graphics/SVG/1.1/DTD/svg11.dtd"><svg xmlns="http://www.w3.org/2000/svg"><symbol id="icon-arrow-next" viewBox="0 0 22 16">
    <path d="M13.293 15.707a1 1 0 0 1-.083-1.32l.083-.094L18.585 9H1a1 1 0 0 1-.117-1.993L1 7h17.585l-5.292-5.293a1 1 0 0 1-.083-1.32l.083-.094a1 1 0 0 1 1.32-.083l.094.083 7 7 .073.082.007.008-.08-.09A1.008 1.008 0 0 1 22 7.98v.037c0 .024-.002.048-.004.071L22 8a1.008 1.008 0 0 1-.21.613 1.037 1.037 0 0 1-.083.094l-7 7a1 1 0 0 1-1.414 0z"/>
</symbol><symbol id="icon-arrow-prev" viewBox="0 0 22 16">
    <path d="M8.707.293a1 1 0 0 1 .083 1.32l-.083.094L3.415 7H21a1 1 0 0 1 .117 1.993L21 9H3.415l5.292 5.293a1 1 0 0 1 .083 1.32l-.083.094a1 1 0 0 1-1.32.083l-.094-.083-7-7-.073-.082a1.005 1.005 0 0 1-.007-.008l.08.09A1.008 1.008 0 0 1 0 8.02v-.037c0-.024.002-.048.004-.071L0 8a1.008 1.008 0 0 1 .21-.613c.028-.035.054-.066.083-.094l7-7a1 1 0 0 1 1.414 0z"/>
</symbol><symbol id="icon-facebook" viewBox="0 0 16 16">
    <path fill-rule="evenodd" clip-rule="evenodd" d="M16 8.048a8 8 0 1 0-9.25 7.9V10.36H4.719V8.048H6.75V6.285a2.822 2.822 0 0 1 3.02-3.112c.601.008 1.2.06 1.792.156v1.97h-1.008a1.155 1.155 0 0 0-1.3 1.25v1.5h2.219l-.355 2.313H9.25v5.59A8 8 0 0 0 16 8.049z"/>
</symbol><symbol id="icon-instagram" viewBox="0 0 16 16">
    <path fill-rule="evenodd" clip-rule="evenodd" d="M0 12c0 2.056 1.944 4 4 4h8c2.056 0 4-1.944 4-4V4c0-2.056-1.944-4-4-4H4C1.944 0 0 1.944 0 4v8zm2-8c0-.935 1.065-2 2-2h8c.935 0 2 1.065 2 2v8c0 .935-1.065 2-2 2H4c-.953 0-2-1.047-2-2V4zm11.105-.108a.96.96 0 1 1-1.92 0 .96.96 0 0 1 1.92 0zM8 12c-2.206 0-4-1.794-4-4s1.794-4 4-4 4 1.794 4 4-1.794 4-4 4zm0-6c-1.103 0-2 .897-2 2s.897 2 2 2 2-.897 2-2-.897-2-2-2z"/>
</symbol><symbol id="icon-youtube" viewBox="0 0 16 12">
    <path fill-rule="evenodd" clip-rule="evenodd" d="M15.8 2.8C15.6 1.5 15 .6 13.6.4 11.4 0 8 0 8 0S4.6 0 2.4.4C1 .6.3 1.5.2 2.8 0 4.1 0 6 0 6s0 1.9.2 3.2c.2 1.3.8 2.2 2.2 2.4C4.6 12 8 12 8 12s3.4 0 5.6-.4c1.4-.3 2-1.1 2.2-2.4C16 7.9 16 6 16 6s0-1.9-.2-3.2zM6 9V3l5 3-5 3z"/>
</symbol><symbol id="icon-arrow-next" viewBox="0 0 16 11">
    <path d="M10.146 10.854a.5.5 0 0 1-.057-.638l.057-.07L14.293 6H.5a.5.5 0 0 1-.09-.992L.5 5h13.793L10.146.854a.5.5 0 0 1-.057-.638l.057-.07a.5.5 0 0 1 .638-.057l.07.057 5 5 .011.013a.503.503 0 0 1 .033.039l-.044-.052A.502.502 0 0 1 16 5.5v.01a.503.503 0 0 1-.005.064L16 5.5a.502.502 0 0 1-.089.284l-.013.018a.503.503 0 0 1-.033.04l-.011.012-5 5a.5.5 0 0 1-.708 0z"/>
</symbol><symbol id="icon-arrow-prev" viewBox="0 0 16 11">
    <path d="M5.854.146a.5.5 0 0 1 .057.638l-.057.07L1.707 5H15.5a.5.5 0 0 1 .09.992L15.5 6H1.707l4.147 4.146a.5.5 0 0 1 .057.638l-.057.07a.5.5 0 0 1-.638.057l-.07-.057-5-5-.011-.013a.503.503 0 0 1-.033-.039l.044.052A.502.502 0 0 1 0 5.5v-.01c0-.022.002-.043.005-.064L0 5.5a.502.502 0 0 1 .089-.284l.013-.018a.503.503 0 0 1 .033-.04l.011-.012 5-5a.5.5 0 0 1 .708 0z"/>
</symbol><symbol id="icon-arrow-right" viewBox="0 0 8 14">
    <path d="M.293.293A1 1 0 0 1 1.613.21l.094.083 6 6a1 1 0 0 1 .083 1.32l-.083.094-6 6a1 1 0 0 1-1.497-1.32l.083-.094L5.585 7 .293 1.707A1 1 0 0 1 .21.387L.293.293z"/>
</symbol><symbol id="icon-search" viewBox="0 0 21 21">
    <path fill-rule="evenodd" clip-rule="evenodd" d="M1.528 9.767a8.239 8.239 0 1 1 16.478 0 8.239 8.239 0 0 1-16.478 0zM9.767.028c-5.379 0-9.74 4.36-9.74 9.74 0 5.378 4.361 9.738 9.74 9.738 2.3 0 4.415-.797 6.08-2.131l3.165 3.156a.75.75 0 0 0 1.06-1.062l-3.128-3.119a9.704 9.704 0 0 0 2.562-6.583c0-5.378-4.36-9.739-9.74-9.739z"/>
</symbol><symbol id="icon-star" viewBox="0 0 16 16">
    <path fill-rule="evenodd" clip-rule="evenodd" d="M8 13.738l-3.908 2.147a.937.937 0 0 1-1.292-.42 1.04 1.04 0 0 1-.096-.634l.746-4.547L.29 7.064A1.032 1.032 0 0 1 .272 5.65a.943.943 0 0 1 .547-.292l4.37-.663L7.141.558c.234-.496.808-.699 1.281-.455a.98.98 0 0 1 .435.455l1.954 4.137 4.369.663c.523.08.885.587.809 1.133-.03.218-.128.419-.28.572l-3.16 3.22.746 4.548c.09.544-.26 1.061-.781 1.154a.92.92 0 0 1-.607-.1L8 13.738z"/>
</symbol>
</svg>