<svg width="643" height="816" viewBox="0 0 643 816" fill="none" xmlns="http://www.w3.org/2000/svg">
<path d="M66.9994 -3.97671C36.7294 2.55329 12.5694 27.1433 3.55937 56.3433C-5.77063 86.5933 3.65937 118.343 26.9494 139.543C49.4394 159.993 82.9494 169.643 112.049 158.463C139.269 148.003 162.919 118.173 149.779 88.3533C138.679 63.1733 105.779 48.4533 80.0794 59.4433C54.3794 70.4333 41.8894 101.193 46.5894 127.753C52.5294 161.263 85.0894 179.753 114.859 189.123C150.919 200.543 192.929 202.223 222.469 228.503C245.759 249.223 257.179 281.503 254.859 312.333C253.798 327.783 248.9 342.724 240.609 355.803C231.439 369.993 215.789 382.143 198.529 383.803C179.329 385.653 165.529 370.923 164.139 352.433C162.629 332.103 174.949 314.333 186.659 298.903C209.029 269.443 237.659 240.113 274.819 231.033C307.729 223.033 347.309 232.093 364.759 263.423C384.539 298.943 370.459 341.333 349.489 372.673C338.109 389.673 324.579 405.183 311.259 420.673C297.719 436.423 284.059 452.093 271.259 468.483C247.039 499.563 225.909 533.673 216.799 572.413C208.249 608.753 210.799 647.833 230.969 680.023C249.709 710.023 279.969 731.193 312.149 744.763C352.349 761.763 396.049 768.443 438.649 776.583L575.289 802.703L640.809 815.223C642.219 815.493 642.809 813.333 641.409 813.053L506.409 787.243C462.489 778.853 418.259 771.423 374.639 761.583C335.809 752.813 296.859 740.043 265.429 714.773C251.509 703.583 239.269 690.153 230.379 674.593C220.836 657.596 215.414 638.597 214.549 619.123C210.199 534.413 272.939 469.503 323.669 409.613C347.829 381.073 372.669 349.293 375.989 310.613C377.439 293.893 374.789 276.413 366.399 261.703C358.67 248.43 346.723 238.123 332.459 232.423C301.679 219.773 267.009 226.643 239.629 244.073C224.329 253.843 210.999 266.423 199.099 280.023C186.949 293.923 174.239 309.193 166.859 326.243C160.579 340.763 159.149 358.653 168.409 372.313C176.689 384.513 191.349 388.373 205.219 384.883C235.429 377.283 252.879 346.693 256.569 317.633C260.219 288.813 251.789 258.263 232.949 236.023C208.949 207.733 171.489 200.943 137.239 192.803C104.799 185.103 64.9694 172.113 51.7394 137.923C41.1694 110.613 52.5094 74.4233 80.0094 61.9233C107.789 49.2733 145.649 68.9233 150.729 99.2133C156.829 135.513 117.169 161.313 85.1194 160.943C53.0694 160.573 21.7294 139.943 8.51937 110.723C-5.21063 80.3033 4.42937 44.3033 27.1594 20.9633C38.0932 9.56547 52.1522 1.654 67.5694 -1.77671C68.9994 -2.08671 68.3794 -4.24671 66.9994 -3.97671Z" fill="#D1ECFD"/>
</svg>
