<svg width="22" height="22" viewBox="0 0 22 22" fill="none" xmlns="http://www.w3.org/2000/svg">
<path fill-rule="evenodd" clip-rule="evenodd" d="M9.01657 2.22128C10.9096 1.79357 12.8902 1.98926 14.663 2.77915C15.1675 3.00393 15.7587 2.7772 15.9834 2.27272C16.2082 1.76825 15.9815 1.17708 15.477 0.952297C13.3103 -0.0131332 10.8896 -0.252303 8.57581 0.270457C6.26206 0.793217 4.17929 2.0499 2.63811 3.85308C1.09693 5.65625 0.179919 7.90932 0.0238445 10.2762C-0.13223 12.6432 0.480993 14.9971 1.77206 16.9871C3.06312 18.977 4.96285 20.4963 7.18792 21.3183C9.41299 22.1404 11.8442 22.2211 14.1189 21.5486C16.3936 20.876 18.39 19.4862 19.8103 17.5863C21.2306 15.6864 21.9986 13.3778 22 11.0057V10.0857C22 9.53344 21.5523 9.08572 21 9.08572C20.4477 9.08572 20 9.53344 20 10.0857V11.0052C19.9989 12.9459 19.3705 14.8344 18.2084 16.3888C17.0464 17.9432 15.413 19.0804 13.5518 19.6307C11.6907 20.1809 9.70153 20.1149 7.88102 19.4423C6.06051 18.7697 4.50619 17.5266 3.44987 15.8985C2.39354 14.2704 1.89181 12.3444 2.01951 10.4078C2.14721 8.47126 2.89749 6.62785 4.15845 5.15252C5.41942 3.67719 7.12351 2.649 9.01657 2.22128ZM21.7071 3.70711C22.0976 3.31658 22.0976 2.68342 21.7071 2.29289C21.3166 1.90237 20.6834 1.90237 20.2929 2.29289L10.9996 11.5861L8.70675 9.29554C8.31603 8.90521 7.68287 8.90552 7.29254 9.29624C6.90221 9.68696 6.90253 10.3201 7.29325 10.7105L10.2932 13.7075C10.6838 14.0977 11.3167 14.0975 11.7071 13.7071L21.7071 3.70711Z" fill="#7737FF"/>
</svg>
