<svg width="20" height="20" viewBox="0 0 20 20" fill="none" xmlns="http://www.w3.org/2000/svg">
<path fill-rule="evenodd" clip-rule="evenodd" d="M5.5 2C3.567 2 2 3.567 2 5.5V14.5C2 16.433 3.567 18 5.5 18H14.5C16.433 18 18 16.433 18 14.5V5.5C18 3.567 16.433 2 14.5 2H5.5ZM0 5.5C0 2.46243 2.46243 0 5.5 0H14.5C17.5376 0 20 2.46243 20 5.5V14.5C20 17.5376 17.5376 20 14.5 20H5.5C2.46243 20 0 17.5376 0 14.5V5.5ZM10.4203 7.38848C9.87939 7.30826 9.32691 7.40066 8.84149 7.65254C8.35607 7.90441 7.96243 8.30293 7.71656 8.79142C7.47069 9.27991 7.38511 9.83349 7.47199 10.3734C7.55887 10.9133 7.81379 11.4121 8.20049 11.7988C8.58719 12.1855 9.08598 12.4405 9.62591 12.5273C10.1658 12.6142 10.7194 12.5286 11.2079 12.2828C11.6964 12.0369 12.0949 11.6433 12.3468 11.1578C12.5987 10.6724 12.6911 10.1199 12.6108 9.57898C12.529 9.02718 12.2719 8.51633 11.8774 8.12188C11.483 7.72743 10.9721 7.4703 10.4203 7.38848ZM7.92035 5.87729C8.77916 5.43167 9.75663 5.26819 10.7137 5.41011C11.69 5.55488 12.5938 6.0098 13.2917 6.70766C13.9895 7.40553 14.4444 8.30935 14.5892 9.28561C14.7311 10.2427 14.5677 11.2202 14.122 12.079C13.6764 12.9378 12.9713 13.6342 12.1071 14.0692C11.2428 14.5042 10.2634 14.6556 9.30817 14.5019C8.35291 14.3482 7.47044 13.8972 6.78628 13.213C6.10212 12.5289 5.65111 11.6464 5.49739 10.6912C5.34368 9.7359 5.49509 8.75649 5.93009 7.89224C6.36509 7.02799 7.06153 6.32291 7.92035 5.87729ZM14.95 4.05029C14.3977 4.05029 13.95 4.49801 13.95 5.05029C13.95 5.60258 14.3977 6.05029 14.95 6.05029H14.9582C15.5105 6.05029 15.9582 5.60258 15.9582 5.05029C15.9582 4.49801 15.5105 4.05029 14.9582 4.05029H14.95Z" fill="#7737FF"/>
</svg>
