<svg width="22" height="18" viewBox="0 0 22 18" fill="none" xmlns="http://www.w3.org/2000/svg">
<path fill-rule="evenodd" clip-rule="evenodd" d="M13.2695 0.326084C14.2375 -0.036341 15.2948 -0.0982196 16.2993 0.148289C17.0821 0.340421 17.8052 0.713157 18.4099 1.23326C19.1263 0.970955 19.8056 0.619277 20.431 0.186603C20.7731 -0.0500827 21.226 -0.0502605 21.5683 0.186157C21.9106 0.422575 22.0708 0.846202 21.9705 1.24994C21.6581 2.50811 21.0364 3.66715 20.165 4.62778C20.1757 4.75756 20.1814 4.88778 20.1818 5.01815L20.1818 5.02152C20.1818 10.5085 17.4858 14.5352 13.6219 16.5524C9.7845 18.5558 4.88571 18.532 0.521496 16.1539C0.113646 15.9317 -0.0874892 15.4579 0.0359353 15.0101C0.15936 14.5623 0.574849 14.2585 1.03897 14.2766C2.49041 14.3332 3.92709 14.0659 5.24385 13.505C3.9616 12.6957 3.02409 11.745 2.3616 10.719C1.43607 9.28567 1.08688 7.76705 1.02378 6.40542C0.960908 5.04873 1.1806 3.82881 1.41087 2.95549C1.52664 2.51645 1.6468 2.15852 1.73961 1.90675C1.78607 1.7807 1.82585 1.68077 1.85506 1.61007C1.86967 1.5747 1.88164 1.5466 1.89051 1.52615L1.90142 1.50125L1.90502 1.49318L1.90633 1.49026L1.90686 1.48908C1.9071 1.48857 1.90731 1.48809 2.81816 1.90082L1.90731 1.48809C2.0548 1.16261 2.36474 0.940564 2.72036 0.905616C3.07598 0.870668 3.42322 1.02813 3.63124 1.31867C4.45305 2.46646 5.55298 3.39894 6.83449 4.03161C7.82518 4.52071 8.90001 4.81846 10.0003 4.91154C10.0168 3.93647 10.3229 2.98757 10.8804 2.18196C11.4664 1.33525 12.3012 0.688576 13.2695 0.326084ZM3.23719 3.91329C3.08985 4.59228 2.98046 5.42421 3.02164 6.31283C3.07217 7.40327 3.34798 8.55965 4.04177 9.63411C4.73199 10.703 5.87559 11.7529 7.76323 12.5758C8.09872 12.722 8.32752 13.0399 8.35974 13.4044C8.39196 13.769 8.22245 14.122 7.91782 14.3249C7.01567 14.9255 6.03797 15.394 5.01527 15.7221C7.74698 16.3119 10.4606 15.9466 12.6963 14.7795C15.8774 13.1187 18.1812 9.78966 18.1818 5.02329C18.1811 4.83858 18.1629 4.65427 18.1275 4.47271C18.0628 4.14046 18.1705 3.79801 18.4138 3.56267C18.521 3.45903 18.6238 3.35176 18.7222 3.24113C18.6249 3.27285 18.527 3.30324 18.4287 3.33228C18.0566 3.44217 17.6546 3.32695 17.3972 3.03668C16.9859 2.57278 16.4367 2.24138 15.8226 2.09065C15.2083 1.93989 14.5615 1.97794 13.9707 2.19913C13.38 2.42026 12.8762 2.81272 12.525 3.32015C12.174 3.82731 11.9916 4.42573 11.9999 5.0346L12.0001 5.04827H12V5.93995C12 6.48233 11.5676 6.92584 11.0254 6.93963C9.26637 6.98436 7.5226 6.60178 5.94913 5.82497C4.94594 5.3297 4.03141 4.68383 3.23719 3.91329Z" fill="#7737FF"/>
</svg>
